PathFileType	4	(X/Y/Z)	Patient4_TMGait_0pt5_01_left_07.trc.trc
DataRate	CameraRate	NumFrames	NumMarkers	Units	OrigDataRate	OrigDataStartFrame	OrigNumFrames
74.468085106383	74.468085106383	7	33	mm	74.468085106383	18	       141
Frame#	Time	L.ASIS			Sacral			L.Shoulder			Chest			R.Shoulder			Neck			R.ASIS			R.Thigh.Superior			R.Thigh.Lateral			R.Thigh.Inferior			R.Patella			L.Thigh.Superior			L.Thigh.Lateral			L.Thigh.Inferior			L.Patella			L.Shank.Superior			L.Shank.Lateral			L.Shank.Inferior			R.Shank.Superior			R.Shank.Lateral			R.Shank.Inferior			R.Heel			R.Midfoot.Superior			R.Midfoot.Lateral			R.Toe			L.Heel			L.Midfoot.Lateral			L.Midfoot.Superior			L.Toe			L.Elbow			L.Wrist			R.Elbow			R.Wrist			
		X1	Y1	Z1	X2	Y2	Z2	X3	Y3	Z3	X4	Y4	Z4	X5	Y5	Z5	X6	Y6	Z6	X7	Y7	Z7	X8	Y8	Z8	X9	Y9	Z9	X10	Y10	Z10	X11	Y11	Z11	X12	Y12	Z12	X13	Y13	Z13	X14	Y14	Z14	X15	Y15	Z15	X16	Y16	Z16	X17	Y17	Z17	X18	Y18	Z18	X19	Y19	Z19	X20	Y20	Z20	X21	Y21	Z21	X22	Y22	Z22	X23	Y23	Z23	X24	Y24	Z24	X25	Y25	Z25	X26	Y26	Z26	X27	Y27	Z27	X28	Y28	Z28	X29	Y29	Z29	X30	Y30	Z30	X31	Y31	Z31	X32	Y32	Z32	X33	Y33	Z33	

18	9.628285714286	652.134857727604	958.921662349751	362.241216406670	462.788619841406	1005.891603749611	547.556603150621	619.359213143882	1438.843252207760	365.569820487068	743.102455328789	1355.704730005341	504.488094993464	689.410322858898	1422.799517478431	693.450914969064	646.143987463944	1490.890688176371	517.598554670501	698.209249164913	932.996567102070	633.520797888309	695.939431263729	723.409673105255	601.763798469504	596.225992874425	627.697707118444	665.749564965450	653.444688824382	564.103188953667	581.668822762177	633.514381727436	477.201012909264	584.104840958616	726.483456584459	774.114636189055	382.565677468182	670.416635194599	643.882614326219	312.648718844280	777.269522724945	584.866093470860	367.996479360215	806.002141591058	524.373013647387	366.391336997848	796.721906533881	455.575483369033	357.557352969924	745.842185375031	318.859310414306	307.703165451251	846.069511175227	231.287895777355	360.156863661129	592.822908329323	393.906637504643	589.490348429752	508.619107477146	301.247321240055	651.917412471827	530.693164127669	203.361312097339	583.763929998416	371.398902165816	50.426471162876	554.812829701464	547.130655088673	97.041537160847	584.926578634309	457.620170397614	37.406721750577	624.117939918338	665.346185902692	37.956653573098	605.001794973247	783.987708583242	42.531908887768	401.217212348332	856.818467402254	53.594625640716	320.564978092676	917.908328589092	139.677886783676	337.513174898726	1054.064004324171	125.848320151345	312.798636806985	474.003232829290	1113.991710931789	266.153898096549	467.911049091286	851.491662740333	272.526161727563	815.022507178200	1109.597457034920	804.243365047187	1062.549261869149	1139.226094288424	755.369745013065	
19	9.641714285714	653.510764216520	958.099957359997	361.017543049717	463.571034564326	1005.136053858398	545.625872485985	619.962115009272	1438.223655792072	364.375063628112	743.420265016834	1355.064174076339	503.511127241251	689.209210698550	1421.766388263058	692.423055616215	646.298520014934	1490.148322982185	516.556306856242	698.572889945535	932.194821578073	632.578679193342	694.812552868485	722.352496911767	600.966101592503	594.148887197023	627.431815720205	664.939623863752	650.984621571512	563.240202959450	581.099172832263	630.207004051737	476.405837148439	583.490947539898	728.048007495765	773.438341334831	381.492772350488	671.397906388541	642.551198889249	312.516676917338	778.604760722079	583.983888144441	367.137326302793	807.087682753615	523.314676057675	366.209158157891	797.578099133994	454.156361719158	357.978872529236	746.119392697654	317.652757887742	308.800617015355	845.835117876897	229.981635038383	361.504175494665	588.900947735455	393.451197058713	589.067705995860	503.871236165062	301.603101702669	651.639534804993	525.158606441330	203.403250025033	583.679140003703	364.844012035575	51.275514765318	554.979627313691	540.719681459845	97.157852526673	585.063901627184	450.999907490444	37.740535390440	624.220752403602	658.685345059543	37.820961885126	605.007707717187	782.564892533292	42.686413116569	403.177564399118	855.493969493079	52.531447359414	322.598670171850	917.615048701296	137.555454469640	339.409453390055	1053.369199369739	121.744223616293	314.915555715635	475.683188660268	1113.179034643483	263.916666425126	472.689292084490	850.523331671649	270.049639465819	814.982470019944	1107.875871403130	801.384266925140	1062.959253797102	1134.020064434561	751.147103861119	
20	9.655142857143	655.226222112654	957.226232384145	359.640788981769	464.551909893362	1004.366675542768	543.420562284103	620.699307556004	1437.567590660189	362.953500508489	743.860096545509	1354.443614026754	502.361511915785	689.025694441440	1420.766216720314	691.194026726625	646.523582530898	1489.392391110910	515.279952217796	699.099282095891	931.363125178782	631.504404466091	693.866228181214	721.248454011214	600.196694211230	592.177246158987	627.180315585706	664.090516007521	648.679205449098	562.339837549451	580.549034425739	627.013937382438	475.589751283011	582.892512551021	729.972678776915	772.758687651568	380.592887258620	673.015111051346	641.267716068456	312.427461959284	780.269181563998	583.109775518768	366.749349632632	808.362656333246	521.941068630331	366.424875056661	798.383726312641	452.233504884836	358.715669980900	745.630200484170	316.183416674049	310.155116608185	844.224744711645	227.833923322758	363.349642560954	585.076415758523	393.001597668020	588.673958195343	499.158793953711	302.025829336879	651.387824839210	519.643389585717	203.490062180295	583.645486825424	358.281821026430	52.238070919335	555.185466533131	534.298903092702	97.303723813037	585.244548040500	444.353382667071	38.118355398498	624.352684566334	651.974788548433	37.662622355562	605.028812146021	778.528741599167	42.389544491322	405.280670017469	851.810171715666	50.775417000685	324.955314618738	915.453485436354	134.263232821804	342.034200892352	1050.778541702747	115.631158809911	317.992571268285	477.571848463203	1112.313529886499	261.380871159544	478.132695218960	849.551108161697	267.159025816487	814.471667471430	1106.162164180858	798.944178058057	1063.015099655026	1128.033486889616	747.496704734988	
21	9.668571428571	657.292207262931	956.279209553347	358.110118824205	465.733654711363	1003.574810296830	540.925177415210	621.601195085598	1436.862082725627	361.299587302436	744.440502336819	1353.828453284669	501.040761087471	688.869279067197	1419.791324187609	689.760022736333	646.843318182015	1488.611356442245	513.764873203784	699.789766379800	930.483334874160	630.283522336096	693.130036428378	720.085149265949	599.456664463018	590.331662942042	626.923554192890	663.174342868286	646.564475889730	561.387112470026	579.998317477394	623.983053267893	474.719995591027	582.285910595906	732.180386810567	771.973534429753	379.891259319113	675.127598352514	639.997673181417	312.351929714261	782.092253418724	582.155212644335	366.855896352558	809.629671356570	520.229650503546	367.074942648471	799.054361416123	449.864482491583	359.731920082380	744.531147965478	314.431661962345	311.678815682633	841.535465006023	224.977648521496	365.609931591678	581.375491777581	392.530427267028	588.276950176785	494.503410598352	302.500267914337	651.131333329331	514.160207084029	203.603804200970	583.637873352685	351.717094946468	53.299604058858	555.416057733792	527.867508271538	97.478014198599	585.455552547091	437.684507516137	38.540905329867	624.505736956929	645.217122733047	37.482206974560	605.068893028133	772.459750911108	41.675771537054	407.379024999552	846.353593105545	48.483660516563	327.510094909684	911.866561080727	130.034202885677	345.314133950748	1046.752505701847	107.949507504446	322.001701899360	479.686161292120	1111.390391196888	258.544443375685	484.202454009630	848.584956713138	263.895423143915	813.543778700113	1104.454079968708	796.928590753054	1062.733455714696	1121.218552616819	744.528788529093	
22	9.682000000000	659.706401449581	955.256867179444	356.433112998018	467.109666709126	1002.764037222087	538.133602741540	622.699609403443	1436.102727333223	359.408810729119	745.178986758503	1353.213375164411	499.553404037533	688.753134633917	1418.850842444903	688.118196596490	647.284214242147	1487.806971175590	512.004887733702	700.639904946689	929.546736298991	628.907056910093	692.628082112190	718.863404049982	598.726728976685	588.643352687099	626.648273551176	662.155816948362	644.687146321292	560.377700972723	579.415282503938	621.181380766307	473.764901421527	581.641990732141	734.607134842418	771.017085877557	379.389465164800	677.585868359645	638.730098925393	312.256183654797	783.931361530920	581.067958914877	367.422195714224	810.724505702116	518.202975726336	368.134484106407	799.526044521509	447.153630783175	360.952378474925	742.992100147636	312.437599530909	313.263186858566	838.077671239440	221.615212844683	368.156739685674	577.836932884429	392.015311620107	587.837904686489	489.938391455513	303.018858850896	650.833312258137	508.731639753674	203.733627882951	583.627017909971	345.158406686745	54.455826975256	555.655458308236	521.435745450679	97.680955911074	585.681503035772	431.003112267726	39.014229725197	624.669333985253	638.421756539333	37.282988492421	605.128391333563	764.972134503925	40.656943403064	409.344471424365	839.705411057184	45.875857648262	330.122492529598	907.288318329992	125.179963579789	349.100178036300	1041.729030242097	99.234590263414	326.785783256868	482.065290078208	1110.403442173463	255.402268228160	490.864924096108	847.630207112364	260.295586314451	812.236719883715	1102.754335278770	795.315596357547	1062.098706430898	1113.519788325079	742.333635377240	
23	9.695428571429	662.449058826570	954.181860037622	354.624101579644	468.662835691882	1001.953934501689	535.052325253529	624.023334066436	1435.298439948542	357.280140070028	746.090080813182	1352.606049808645	497.906788820954	688.695335536178	1417.973026602457	686.267876162074	647.873474670998	1486.997644694543	509.994320074963	701.638900613671	928.559855053054	627.371886437016	692.379653665694	717.601985945071	597.968714179405	587.157781271660	626.350642492659	660.997727185063	643.108353170239	559.321112484430	578.761949473985	618.698747588284	472.697975691670	580.934358457951	737.203234202708	769.873361689807	379.063367321474	680.251976440183	637.484164968869	312.101543898742	785.687347936840	579.843226856084	368.359772631719	811.537551072666	515.931811042333	369.519605697799	799.766980866030	444.243510363148	362.271782561655	741.185649537003	310.293666656603	314.785156544902	834.149925134542	217.990139429935	370.829020547212	574.516200628349	391.442760835310	587.319088459201	485.511185892797	303.586262818443	650.457206360360	503.392281353945	203.880546129152	583.585035297504	338.617821820992	55.721209119808	555.888677845609	515.027066516136	97.915242912812	585.907514216215	424.324231289253	39.552538625333	624.831579625933	631.603908545272	37.071592217350	605.203392158975	756.660507965997	39.486962366201	411.077638520994	832.394270966236	43.194055626325	332.647909524318	902.107135781643	120.051847293939	353.178851011346	1036.094174136962	90.067170950304	332.071910844288	484.765704201947	1109.350512891928	251.950606149053	498.088491987469	846.691819266682	256.391276087485	810.570785436839	1101.073486330336	794.057966041705	1061.059568180724	1104.886345824546	740.974190489621	
24	9.708857142857	665.481536574470	953.102808479184	352.701080728647	470.366139198395	1001.180854611885	531.701768170290	625.593877511595	1434.474283398019	354.918207720641	747.183358069901	1352.028769265314	496.110804957932	688.718340980827	1417.203879771735	684.211832741355	648.636570358211	1486.218960035679	507.730655906280	702.769906364452	927.548502807588	625.680431479095	692.401691724598	716.339736058477	597.131102319321	585.937428641817	626.037388509454	659.667319293737	641.906801606892	558.241582329776	578.001102688040	616.649869655264	471.501399937983	580.148292291606	739.931166609988	768.580133908339	378.863878610635	683.015097322173	636.308868691631	311.845565467222	787.310704316176	578.524118977388	369.537521038023	812.023670758937	513.528347868621	371.100124823435	799.780706301088	441.298947994739	363.570546868462	739.273681446016	308.129618221176	316.116899911903	830.012056878776	214.354636382536	373.452149813414	571.489275851864	390.810512324927	586.692150995686	481.285931815152	304.222160571833	649.972992210483	498.191059689135	204.060642196402	583.491229720832	332.111754822903	57.136213611563	556.104209394167	508.679648456702	98.186697765801	586.122218667189	417.667724441080	40.180795052483	624.980767085441	624.783633047713	36.858267476841	605.285208410108	748.047585813549	38.326021795193	412.512622424409	824.855938207428	40.664224831314	334.951456593707	896.634278841962	114.998702967050	357.296884920648	1030.157347943623	81.018267456247	337.509076530183	487.854020201003	1108.238547355447	248.191345103167	505.841307561937	845.778970232955	252.209683381441	808.548154890758	1099.431264044521	793.087572575859	1059.528666385894	1095.285193498746	740.481173007238	
